<mxfile host="app.diagrams.net" agent="Mozilla/5.0 (Windows NT 10.0; Win64; x64) AppleWebKit/537.36 (KHTML, like Gecko) Chrome/129.0.0.0 Safari/537.36" version="24.7.17">
  <diagram name="Page-1" id="e7e014a7-5840-1c2e-5031-d8a46d1fe8dd">
    <mxGraphModel dx="1290" dy="563" grid="1" gridSize="10" guides="1" tooltips="1" connect="1" arrows="1" fold="1" page="1" pageScale="1" pageWidth="1169" pageHeight="826" background="none" math="0" shadow="0">
      <root>
        <mxCell id="0" />
        <mxCell id="1" parent="0" />
        <mxCell id="2" value="User" style="swimlane;whiteSpace=wrap" parent="1" vertex="1">
          <mxGeometry x="50" y="128" width="394.5" height="662" as="geometry" />
        </mxCell>
        <mxCell id="5" value="" style="ellipse;shape=startState;fillColor=#000000;strokeColor=#ff0000;" parent="2" vertex="1">
          <mxGeometry x="150" y="32" width="30" height="30" as="geometry" />
        </mxCell>
        <mxCell id="SuG1Byf5JXPER20UlvzR-43" value="Ấn vào bình luận" style="" vertex="1" parent="2">
          <mxGeometry x="110" y="82" width="110" height="50" as="geometry" />
        </mxCell>
        <mxCell id="SuG1Byf5JXPER20UlvzR-45" value="" style="endArrow=open;strokeColor=#FF0000;endFill=1;rounded=0;" edge="1" parent="2" source="5" target="SuG1Byf5JXPER20UlvzR-43">
          <mxGeometry relative="1" as="geometry">
            <mxPoint x="165" y="47" as="sourcePoint" />
            <mxPoint x="479.5" y="335" as="targetPoint" />
          </mxGeometry>
        </mxCell>
        <mxCell id="SuG1Byf5JXPER20UlvzR-44" value="Nhập nội dung&#xa; bình luận" style="" vertex="1" parent="2">
          <mxGeometry x="230" y="182" width="110" height="50" as="geometry" />
        </mxCell>
        <mxCell id="SuG1Byf5JXPER20UlvzR-84" value="" style="endArrow=open;strokeColor=#FF0000;endFill=1;rounded=0;" edge="1" parent="2" source="SuG1Byf5JXPER20UlvzR-43" target="SuG1Byf5JXPER20UlvzR-44">
          <mxGeometry relative="1" as="geometry">
            <mxPoint x="175" y="82" as="sourcePoint" />
            <mxPoint x="175" y="132" as="targetPoint" />
          </mxGeometry>
        </mxCell>
        <mxCell id="3" value="Hệ thống" style="swimlane;whiteSpace=wrap" parent="1" vertex="1">
          <mxGeometry x="444.5" y="128" width="280" height="662" as="geometry" />
        </mxCell>
        <mxCell id="21" value="Kiểm tra nội&#xa;dung bình luận &#xa;có nhạy cảm &#xa;không?" style="rhombus;fillColor=#ffffc0;strokeColor=#ff0000;" parent="3" vertex="1">
          <mxGeometry x="67.5" y="272" width="144.5" height="98" as="geometry" />
        </mxCell>
        <mxCell id="SuG1Byf5JXPER20UlvzR-48" value="" style="ellipse;shape=endState;fillColor=#000000;strokeColor=#ff0000" vertex="1" parent="3">
          <mxGeometry x="124.75" y="584" width="30" height="30" as="geometry" />
        </mxCell>
        <mxCell id="SuG1Byf5JXPER20UlvzR-49" value="Thống báo tạo&#xa; thành công" style="" vertex="1" parent="3">
          <mxGeometry x="15.5" y="435" width="110" height="50" as="geometry" />
        </mxCell>
        <mxCell id="SuG1Byf5JXPER20UlvzR-50" value="Thông báo tạo&#xa;thất bại" style="" vertex="1" parent="3">
          <mxGeometry x="155.5" y="435" width="110" height="50" as="geometry" />
        </mxCell>
        <mxCell id="SuG1Byf5JXPER20UlvzR-51" value="" style="endArrow=open;strokeColor=#FF0000;endFill=1;rounded=0;" edge="1" parent="3" source="21" target="SuG1Byf5JXPER20UlvzR-49">
          <mxGeometry relative="1" as="geometry">
            <mxPoint x="-44" y="241" as="sourcePoint" />
            <mxPoint x="67" y="240" as="targetPoint" />
          </mxGeometry>
        </mxCell>
        <mxCell id="SuG1Byf5JXPER20UlvzR-52" value="Đúng" style="edgeLabel;html=1;align=center;verticalAlign=middle;resizable=0;points=[];" vertex="1" connectable="0" parent="SuG1Byf5JXPER20UlvzR-51">
          <mxGeometry x="-0.1267" relative="1" as="geometry">
            <mxPoint as="offset" />
          </mxGeometry>
        </mxCell>
        <mxCell id="SuG1Byf5JXPER20UlvzR-65" value="" style="endArrow=open;strokeColor=#FF0000;endFill=1;rounded=0;" edge="1" parent="3" source="21" target="SuG1Byf5JXPER20UlvzR-50">
          <mxGeometry relative="1" as="geometry">
            <mxPoint x="-99" y="162" as="sourcePoint" />
            <mxPoint x="-99" y="217" as="targetPoint" />
          </mxGeometry>
        </mxCell>
        <mxCell id="SuG1Byf5JXPER20UlvzR-66" value="Sai" style="edgeLabel;html=1;align=center;verticalAlign=middle;resizable=0;points=[];" vertex="1" connectable="0" parent="SuG1Byf5JXPER20UlvzR-65">
          <mxGeometry x="0.0423" y="-3" relative="1" as="geometry">
            <mxPoint as="offset" />
          </mxGeometry>
        </mxCell>
        <mxCell id="SuG1Byf5JXPER20UlvzR-67" value="" style="endArrow=open;strokeColor=#FF0000;endFill=1;rounded=0;" edge="1" parent="3" source="SuG1Byf5JXPER20UlvzR-49" target="SuG1Byf5JXPER20UlvzR-48">
          <mxGeometry relative="1" as="geometry">
            <mxPoint x="119" y="275" as="sourcePoint" />
            <mxPoint x="94" y="322" as="targetPoint" />
          </mxGeometry>
        </mxCell>
        <mxCell id="SuG1Byf5JXPER20UlvzR-71" value="Trả về trang &#xa;đăng nhập" style="" vertex="1" parent="3">
          <mxGeometry x="84.75" y="192" width="110" height="50" as="geometry" />
        </mxCell>
        <mxCell id="SuG1Byf5JXPER20UlvzR-72" value="Kiểm tra đăng nhập" style="rhombus;fillColor=#ffffc0;strokeColor=#ff0000;" vertex="1" parent="3">
          <mxGeometry x="85.5" y="82" width="112.5" height="50" as="geometry" />
        </mxCell>
        <mxCell id="SuG1Byf5JXPER20UlvzR-78" value="" style="endArrow=open;strokeColor=#FF0000;endFill=1;rounded=0;" edge="1" parent="3" source="SuG1Byf5JXPER20UlvzR-72" target="SuG1Byf5JXPER20UlvzR-71">
          <mxGeometry relative="1" as="geometry">
            <mxPoint x="185" y="368" as="sourcePoint" />
            <mxPoint x="223" y="445" as="targetPoint" />
          </mxGeometry>
        </mxCell>
        <mxCell id="SuG1Byf5JXPER20UlvzR-79" value="Sai" style="edgeLabel;html=1;align=center;verticalAlign=middle;resizable=0;points=[];" vertex="1" connectable="0" parent="SuG1Byf5JXPER20UlvzR-78">
          <mxGeometry x="0.0423" y="-3" relative="1" as="geometry">
            <mxPoint as="offset" />
          </mxGeometry>
        </mxCell>
        <mxCell id="SuG1Byf5JXPER20UlvzR-80" value="" style="endArrow=open;strokeColor=#FF0000;endFill=1;rounded=0;" edge="1" parent="3" source="SuG1Byf5JXPER20UlvzR-72" target="21">
          <mxGeometry relative="1" as="geometry">
            <mxPoint x="148" y="367" as="sourcePoint" />
            <mxPoint x="108" y="445" as="targetPoint" />
            <Array as="points">
              <mxPoint x="255.5" y="107" />
              <mxPoint x="255.5" y="322" />
            </Array>
          </mxGeometry>
        </mxCell>
        <mxCell id="SuG1Byf5JXPER20UlvzR-81" value="Đúng" style="edgeLabel;html=1;align=center;verticalAlign=middle;resizable=0;points=[];" vertex="1" connectable="0" parent="SuG1Byf5JXPER20UlvzR-80">
          <mxGeometry x="-0.1267" relative="1" as="geometry">
            <mxPoint as="offset" />
          </mxGeometry>
        </mxCell>
        <mxCell id="SuG1Byf5JXPER20UlvzR-86" value="" style="endArrow=open;strokeColor=#FF0000;endFill=1;rounded=0;" edge="1" parent="3" source="SuG1Byf5JXPER20UlvzR-50" target="SuG1Byf5JXPER20UlvzR-48">
          <mxGeometry relative="1" as="geometry">
            <mxPoint x="93" y="495" as="sourcePoint" />
            <mxPoint x="195.5" y="552" as="targetPoint" />
          </mxGeometry>
        </mxCell>
        <mxCell id="SuG1Byf5JXPER20UlvzR-47" value="" style="endArrow=open;strokeColor=#FF0000;endFill=1;rounded=0;" edge="1" parent="1" source="SuG1Byf5JXPER20UlvzR-44" target="SuG1Byf5JXPER20UlvzR-72">
          <mxGeometry relative="1" as="geometry">
            <mxPoint x="345" y="408" as="sourcePoint" />
            <mxPoint x="345" y="463" as="targetPoint" />
          </mxGeometry>
        </mxCell>
      </root>
    </mxGraphModel>
  </diagram>
</mxfile>
